<svg width="59" height="94" viewBox="0 0 59 94" fill="none" xmlns="http://www.w3.org/2000/svg">
<path fill-rule="evenodd" clip-rule="evenodd" d="M11.5455 84.3085V67.8717L19.0588 60.9108L38.1679 85.1157C41.6946 83.9908 45.0089 82.3899 48.0352 80.3887L27.1378 54.01L56.6364 24.1818H43.3636L12.8182 55.2727H11.5455V9.69146C7.63466 11.2077 4.0216 13.3211 0.818182 15.9198V78.0802C4.0216 80.6789 7.63466 82.7923 11.5455 84.3085ZM0.818182 3.7948C2.66825 2.71417 4.59397 1.74898 6.58548 0.909088H0.818182V3.7948ZM0.818182 90.2052C3.37661 91.6996 6.07974 92.9732 8.90143 94H0.818182V90.2052ZM44.6976 93.3867L45.1818 94H58.8182L54.2637 88.2509C51.2908 90.2917 48.0863 92.0195 44.6976 93.3867Z" fill="white"/>
</svg>
