<svg width="58" height="94" viewBox="0 0 58 94" fill="none" xmlns="http://www.w3.org/2000/svg">
<path fill-rule="evenodd" clip-rule="evenodd" d="M10.7273 83.3994V66.9626L18.2406 60.0017L37.3497 84.2066C40.8764 83.0817 44.1907 81.4808 47.217 79.4796L26.3196 53.1009L55.8182 23.2727H42.5455L12 54.3636H10.7273V8.78238C6.81648 10.2986 3.20342 12.412 0 15.0107V77.1712C3.20342 79.7698 6.81648 81.8832 10.7273 83.3994ZM0 2.88571C1.85006 1.80509 3.77579 0.83989 5.76729 0H0V2.88571ZM0 89.2961C2.55843 90.7905 5.26156 92.0641 8.08325 93.0909H0V89.2961ZM43.8794 92.4776L44.3636 93.0909H58L53.4455 87.3418C50.4727 89.3826 47.2681 91.1104 43.8794 92.4776Z" fill="#050505"/>
</svg>
